<?xml version="1.0" encoding="UTF-8"?>
<!DOCTYPE svg  PUBLIC '-//W3C//DTD SVG 1.1//EN' 'http://www.w3.org/Graphics/SVG/1.1/DTD/svg11.dtd'>
<svg enable-background="new 0 0 1674.0173 1614.1602" version="1.1" viewBox="0 0 1674.0173 1614.1602" xml:space="preserve" xmlns="http://www.w3.org/2000/svg">
					<path d="m550.32 49.082c-4.3357 10.266-4.1781 22.235 2.8199 31.301 11.369-5.6747 21.635-15.398 26.841-27.104 2.9243-6.4938 4.3518-13.86 3.1495-20.944-1.3533-7.9736-2.8745-12.006-10.381-7.5392-9.6296 5.7306-18.021 13.846-22.43 24.286-5.0686 12.002 1.2655-2.9967 0 0z"/>
					<path d="m590.6 73.087c-12.889-2.2469-25.85 1.5724-36.503 8.8699 4.1204 8.9463 12.676 14.867 22.076 17.179 13.497 3.3202 27.045-0.1786 38.87-6.8501-4.0341-10.516-13.575-17.252-24.443-19.199-6.1373-1.0699 6.158 1.103 0 0z"/>
					<path d="m493.32 76.734c-4.4858 13.25-2.8636 28.212 6.8963 38.754 13.497-8.9648 25.024-21.22 30.654-36.653 2.0408-5.5977 4.827-44.605-7.0484-37.791-13.7 8.2313-25.304 20.349-30.502 35.69-1.305 3.8545 1.3055-3.8534 0 0z"/>
					<path d="m546.01 102.5c-14.589-1.5219-29.658 3.4613-41.273 12.26-11.444 8.6699 23.533 21.485 30.608 22.067 14.07 1.1604 28.817-3.1064 40.44-11.029 10.71-6.9419-23.525-22.647-29.774-23.298-3.8847-0.4052 7.7713 0.8096 0 0z"/>
					<path d="m425.05 118.49c-2.0375 9.0356-2.1361 18.39 0.6435 27.296 1.8194 5.8313 9.4562 23.318 16.045 17.547 14.186-12.426 25.804-28.766 30.493-47.216 2.2403-8.817 3.0585-18.16 1.2848-27.136-1.254-6.3427-6.6662-24.382-14.234-19.045-16.487 11.629-29.64 28.686-34.232 48.553-1.131 5.0159 2.3061-9.9771 0 0z"/>
					<path d="m493.91 143.74c-17.397-0.0534-34.844 7.1715-47.69 18.829-3.7607 3.3816-6.9334 3.9542-2.9622 8.4431 3.5496 4.0123 7.8254 7.3515 12.526 9.9126 8.931 4.8662 19.356 6.8965 29.474 6.6774 17.503-0.2832 34.749-7.327 48.389-18.107 6.3683-5.0331-9.2501-16.177-14.224-19.054-7.7397-4.4775-16.601-6.6745-25.513-6.7015-4.8398-0.0149 2.42 0.0073 0 0z"/>
					<path d="m345.6 181.44c-2.0687 21.989 5.8145 44.114 24.92 56.405 17.358-18.623 29.722-41.843 33.572-67.126 1.7648-12.549 1.0458-25.856-3.5511-37.76-1.8259-4.7283-4.2737-9.2201-7.3379-13.262-5.0534-6.6653-6.5905-9.3651-13.081-3.491-18.235 16.504-32.463 40.411-34.522 65.234-1.2186 12.954 1.0836-13.064 0 0z"/>
					<path d="m435.13 201.75c-21.719 2.0616-41.886 14.55-56.013 30.785-5.291 6.3359-7.0588 7.2454-0.2413 12.552 3.9543 3.078 8.3206 5.6132 12.929 7.5768 11.104 4.7315 23.546 6.1203 35.504 4.9718 23.049-2.2138 44.276-13.481 60.652-29.557 4.8189-4.7304-0.3469-7.4762-4.5691-11.325-3.7207-3.3915-7.8728-6.3046-12.334-8.6389-11.07-5.7923-23.564-7.6771-35.928-6.3648-12.186 1.1567 6.0325-0.6403 0 0z"/>
					<path d="m257.78 275.68c1.0508 14.502 5.0625 28.989 13.428 41.027 3.6731 5.2633 8.0845 10.005 13.102 14.01 2.9262 2.3356 6.0518 4.4194 9.329 6.2294 5.1915 2.8672 5.7701 4.8522 9.2367-0.8374 15.278-25.075 24.786-53.385 25.458-82.874 0.3488-15.333-2.2568-30.928-8.7391-44.898-2.7288-5.8054-6.1919-11.275-10.394-16.128-2.4509-2.8308-5.1491-5.4477-8.0673-7.7947-4.4169-3.5523-4.933-5.7432-9.1238-0.9358-21.911 25.135-35.927 58.537-34.23 92.202 1.1977 16.53-0.8206-16.277 0 0z"/>
					<path d="m372.52 282.85c-23.93 6.0386-44.33 22.351-58.283 42.35-3.7899 5.4324-7.2677 11.114-9.9512 17.182 6.7712 4.8495 14.418 8.4125 22.436 10.64 15.665 4.3507 32.606 3.7376 48.22-0.5099 26.702-7.264 49.367-23.381 66.399-44.974 5.4145-6.8646 2.1188-7.9856-4.4191-12.824-6.06-4.4846-12.783-8.0629-19.909-10.529-14.397-4.9812-29.789-5.0329-44.493-1.3353-1.8359 0.4633 14.707-3.6985 0 0z"/>
					<path d="m170.68 415.05c4.5618 17.635 13.588 34.674 27.022 47.148 6.8504 6.349 14.756 11.528 23.341 15.213 3.578 1.536 7.2655 2.8146 11.024 3.8329 7.5515 2.0463 7.681 1.9348 10.024-5.4031 11.748-37.297 16.563-76.088 8.3095-114.73-4.0252-18.845-11.742-37.497-24.205-52.362-5.9225-7.0639-12.95-13.219-20.903-17.902-3.3557-1.9757-6.867-3.6866-10.494-5.1034-3.1034 4.9527-6.0501 10.006-8.7565 15.187-17.265 35.192-25.328 75.58-15.361 114.12 0.6506 2.5148-1.3009-5.0294 0 0z"/>
					<path d="m313.07 394.87c-29.835 14.345-51.445 41.07-62.801 71.794-2.2195 6.0049-8.3759 16.825-1.266 19.42 9.3418 3.4095 19.248 5.157 29.181 5.3894 17.878 0.4184 35.867-3.8536 52.031-11.384 29.643-13.81 55.665-37.154 70.839-66.364 2.0312-3.5889 3.9246-7.2586 5.5934-11.031-3.5072-2.3893-7.1574-4.5696-10.932-6.5099-8.8729-4.5611-18.435-7.772-28.293-9.3416-18.551-2.9536-37.331 0.2678-54.353 8.0273-8.3556 4.0174 8.5808-3.9115 0 0z"/>
					<path d="m104.48 614.8c11.255 20.234 27.521 38.034 48.185 48.846 10.122 5.298 21.121 8.852 32.438 10.429 5.507 0.7676 11.076 1.0742 16.634 0.9429 2.7836-0.0666 5.5606-0.2401 8.3309-0.5204 0.4194-4.6749 0.6624-9.3641 0.7955-14.055 1.498-52.773-7.5556-106.78-34.344-152.93-11.606-19.992-27.513-38.42-47.658-50.145-9.0103-5.2445-18.846-9.0719-29.094-11.04-6.5457-1.2569-6.5059 6.8686-8.0722 12.324-2.0927 7.2886-3.7886 14.687-5.2176 22.133-8.6202 44.918-4.2418 93.532 18.003 134.01 1.6121 2.8981-3.1838-5.7939 0 0z"/>
					<path d="m270.85 545.59c-35.75 28.311-54.445 74.657-54.038 119.71 0.054 5.9701-2.1275 9.1948 4.7443 9.763 5.9665 0.4933 11.972 0.4798 17.939-0.0015 12.108-0.9769 24.025-3.8746 35.348-8.2431 18.339-7.0811 34.667-17.853 49.539-30.586 29.553-25.3 51.09-60.483 60.226-98.272 1.3696-5.6651 3.9651-7.4891-2.3488-9.7123-5.6434-1.9871-11.417-3.6096-17.277-4.8164-11.85-2.44-24.052-3.1514-36.092-1.8963-21.254 2.2109-41.29 10.913-58.04 24.059-4.5425 3.5973 4.5741-3.5901 0 0z"/>
					<path d="m101.33 888.11c20.811 18.868 46.51 32.937 74.446 37.332 15.825 2.4897 32.052 1.8459 47.614-1.966 6.9474-1.7017 13.742-4.0113 20.306-6.849 5.6064-2.4234 8.4475-1.5892 6.4611-8.1733-1.3573-4.4988-2.8257-8.9642-4.4035-13.39-21.058-59.075-51.104-115.86-95.387-160.96-21.364-21.761-46.774-41.213-76.098-50.653-16.025-5.1588-33.126-7.0355-49.839-4.7399-1.1998 13.777-0.5094 27.998 0.4342 41.773 4.2417 61.92 30.048 125.54 76.466 167.63 3.1585 2.8638-6.317-5.7274 0 0z"/>
					<path d="m269.59 737.66c-29.709 42.653-33.271 97.172-19.628 146.13 1.6663 5.9795 3.8384 11.78 6.1434 17.54 1.15 2.8741 2.3477 5.7282 3.5932 8.5622 3.9308-0.9833 7.8151-2.1514 11.639-3.4907 11.529-4.038 22.487-9.6293 32.676-16.354 20.667-13.639 38.293-31.954 52.561-52.122 29.941-42.318 50.253-96.406 46.615-148.86-0.5612-8.817-0.9272-8.4895-9.7481-8.844-7.5937-0.3051-15.209-0.1348-22.777 0.5684-15.014 1.3949-29.917 4.8562-43.839 10.688-23.266 9.7457-42.53 25.792-57.237 46.179-4.0747 5.8502 4.2282-5.8612 0 0z"/>
					<path d="m225.66 1212.5c33.59 12.096 70.163 16.456 105.15 7.9331 16.568-4.0364 32.38-10.899 46.594-20.326 6.9356-4.5925 13.488-9.7582 19.599-15.4 3.0442-2.8098 5.9796-5.7369 8.8033-8.7681 6.0745-6.5209 5.3798-6.4464-0.2831-13.152-48.631-57.586-107.63-108.21-174.91-142.72-31.909-16.6-66.878-29.712-102.8-33.8-18.594-2.1146-37.585-1.623-55.863 2.5851-8.0881 1.8621-16.01 4.452-23.604 7.8074-3.8046 1.6813-7.5251 3.5527-11.142 5.6077 2.1002 6.128 4.3094 12.219 6.6293 18.267 27.065 70.56 75.883 135.1 141.91 173.28 12.733 7.3619 26.079 13.689 39.916 18.687 5.0728 1.8268-40.494-14.628 0 0z"/>
					<path d="m349.7 958.77c-15.331 64.465 7.4152 132.94 49.505 182.52 4.4738 5.2703 9.1748 10.348 14.089 15.21 3.8039 3.7639 4.3594 7.0754 9.1502 3.295 3.1159-2.4587 6.1431-5.0297 9.0769-7.7031 10.767-9.8114 20.241-20.991 28.436-33.024 18.555-27.246 30.814-58.735 37.796-90.862 14.067-64.727 11-135.51-19.336-195.36-61.92 18.576-113.05 61.548-128.72 125.92-8.2279 34.597 2.1152-8.6889 0 0z"/>
					<path d="m549.04 1528.4c24.091-2.4326 47.703-7.6027 70.251-16.534 11.468-4.5424 24.448-9.3339 31.896-18.766 29.761-37.685 62.104-78.113 78.256-123.86-59.054-22.053-121.39-38.541-183.13-51.052-74.264-15.05-155.1-24.578-229.73-6.6508-31.93 7.6698-62.957 20.977-87.818 42.821-5.7102 5.0172-11.058 10.448-15.965 16.253-3.5277 4.1737-6.0644 4.5206-2.0239 9.0978 2.7679 3.1355 5.5514 6.2577 8.3851 9.3341 12.279 13.331 25.586 25.968 39.481 37.599 55.437 46.401 120.24 80.446 191.16 95.626 32.42 6.9392 66.205 9.3031 99.232 6.1264 11.699-1.1813-3.6125 0.3474 0 0z"/>
					<path d="m546.01 1173.3c11.544 66.18 55.368 120.86 112.14 154.73 13.962 8.3293 29.098 14.696 44.433 19.996 5.1982 1.7968 10.439 3.2946 15.754 4.6852 2.4531 0.6418 4.8942 1.2635 7.3638 1.8611 9.0182 2.1819 9.5274 2.9305 14.214-5.1489 11.41-19.67 13.402-32.702 13.356-54.751-0.0439-20.812-9.8135-103.7-11.135-111.52-3.167-18.724-7.2803-37.325-12.438-55.603-8.3079-29.44-19.115-57.534-33.531-84.53-10.468-19.602-23.996-38.549-39.55-54.437-3.7425-3.8229-7.3944-7.7303-11.349-11.34-4.5923-4.1907-9.2234-11.931-14.586-7.3552-11.766 10.04-22.888 20.857-33.034 32.538-41.29 47.539-61.986 108.11-51.642 170.87 6.7877 38.912-1.8033-10.94 0 0z"/>
			<path d="m610.84 38.874c-9.0294 4.4617-17.04 11.877-20.429 21.538 18.989 5.178 42.216-5.6951 50.002-23.858-9.6017-3.3302-20.493-1.9201-29.574 2.3198-5.0612 2.5009 10.24-4.7813 0 0z"/>
			<path d="m590.41 60.413c-236.69 125.58-393.26 390.75-372.29 660.66 11.016 141.79 66.354 275.21 154.14 386.75 80.956 102.86 192.04 192.51 317.28 234.47 17.01 5.699 34.223 10.516 51.352 15.824 34.914 10.82 63.99 40.926 86.622 68.258 23.319 28.162 43.116 59.413 59.314 92.167 8.8063 17.807 16.657 36.212 22.262 55.294 2.145 7.3013 6.7537 12.595-1.4481 14.588-3.8406 0.9333-7.6812 1.8667-11.522 2.8-7.7962-35.509-24.329-69.306-42.732-100.44-19.165-32.421-41.972-63.714-70.178-88.896-21.65-19.329-44.38-29.517-71.714-37.54-15.362-4.6957-30.426-10.109-45.358-16.026-131.9-52.263-245.76-150.86-326.21-266.76-74.878-107.87-126.59-239.12-129.29-371.6-2.694-132.2 27.894-262.29 94.485-377.07 66.973-115.44 166.84-210.94 285.29-272.48-60.735 32.223-61.009 31.7 0 0z"/>
					<path d="m1095.3 100.28c9.7216-1.5065 19.045-6.5692 24.211-15.159 4.8608-8.0816-25.021-12.516-30.383-12.163-11.264 0.7406-22.009 6.0619-27.527 16.253-5.3073 9.8028 27.116 12.086 33.698 11.069 12.122-1.8785-3.0335 0.4686 0 0z"/>
					<path d="m1095.1 53.718c4.6617 10.527 13.484 19.475 23.344 25.258 11.284 6.6189 8.6693-23.819 6.3129-29.421-4.3901-10.445-12.768-18.565-22.386-24.308-7.4985-4.4772-9.0234-0.4431-10.388 7.5257-1.2125 7.0823 0.2024 14.448 3.1164 20.946 2.5972 5.8647-2.614-5.8294 0 0z"/>
					<path d="m1139.6 137.3c13.489-1.0925 26.839-7.3871 33.782-19.445-11.856-10.503-28.557-16.524-44.394-14.888-6.2716 0.6472-40.468 16.216-29.803 23.271 11.795 7.8014 26.206 12.221 40.415 11.062 3.8235-0.3097-3.8252 0.3119 0 0z"/>
					<path d="m1144.1 79.325c5.1019 14.049 15.208 25.727 27.229 34.358 12.237 8.7861 12.65-29.476 10.312-36.42-4.8219-14.298-15.2-25.779-27.667-33.969-3.8647-2.5785-4.9547-4.8729-7.8533-0.1532-2.0195 3.2882-3.4417 6.9216-4.2567 10.69-1.8354 8.4867-0.7051 17.394 2.2352 25.494 1.3644 3.7571-2.7271-7.5133 0 0z"/>
					<path d="m1189.6 188.12c8.7509 0.2004 17.759-1.2893 25.79-4.8361 5.5818-2.4662 22.221-11.5 16.056-17.537-12.208-11.953-28.455-20.032-45.587-21.311-17.414-1.2993-34.844 5.4562-45.124 19.958-8.0024 11.288 39.759 23.574 48.866 23.725 4.7387 0.1085-9.5328-0.1583 0 0z"/>
					<path d="m1202.7 116.66c4.3778 17.322 14.826 32.418 27.589 44.648 3.6628 3.4931 4.4861 6.6304 8.6611 2.3216 3.7372-3.8568 6.7318-8.4037 8.8071-13.357 4.1565-9.9196 4.4333-20.807 2.1088-31.197-4.2391-18.418-15.908-34.697-30.8-46.109-4.0868-3.1321-5.6069-6.6558-9.3954-1.7831-3.3026 4.2478-5.7208 9.139-7.2261 14.298-2.9619 10.152-2.3126 21.016 0.2555 31.178 1.2344 4.8845-0.6173-2.4422 0 0z"/>
					<path d="m1243.1 257.66c20.71 3.0977 43.314-1.5847 58.336-16.937-13.402-19.103-34.369-34.195-57.72-37.896-21.421-3.3949-43.184 3.1132-57.508 19.797-10.1 11.763 47.603 33.528 56.892 35.036 11.582 1.7324-11.453-1.8598 0 0z"/>
					<path d="m1270.7 171.31c3.601 23.826 14.703 45.37 30.281 63.566 4.745 5.5423 7.474 0.9918 11.941-3.3989 4.5491-4.4711 8.2609-9.756 10.975-15.526 5.0026-10.518 6.3408-22.357 5.2656-33.868-2.0323-24.813-16.208-48.735-34.422-65.252-5.3441-4.8459-5.7778-4.9943-10.714 0.5898-4.1874 4.7367-7.4407 10.252-9.7233 16.14-4.6117 11.897-5.3529 25.199-3.6032 37.749 1.863 12.327-0.8676-6.2225 0 0z"/>
					<path d="m1295.1 351.73c14.26 4.6197 29.695 6.135 44.524 3.7096 6.889-1.1266 13.635-3.1585 19.953-6.1361 3.7555-1.77 7.3547-3.8713 10.733-6.2852-1.6074-3.6372-3.4976-7.1446-5.568-10.538-13.544-22.197-34.437-41.066-59.831-48.297-27.008-7.6905-55.478-1.5291-75.662 18.342 15.697 22.888 39.132 41.209 65.85 49.204 13.621 4.4127-14.006-4.1912 0 0z"/>
					<path d="m1346.4 250.93c-0.0867 26.96 7.4677 53.999 20.53 77.537 1.5591 2.7921 3.1722 5.5526 4.8397 8.2814 3.4584 5.6926 4.0449 3.7041 9.2358 0.8442 6.6183-3.6463 12.596-8.416 17.609-14.07 10.532-11.877 16.096-27.082 17.901-42.707 3.7096-32.108-9.0913-64.217-27.9-89.656-1.8684-2.3769-3.795-4.7057-5.7799-6.9864-4.1855-4.809-4.7051-2.6179-9.1245 0.9285-5.8997 4.7341-10.87 10.561-14.794 17.018-8.8177 14.509-12.482 31.973-12.517 48.81-0.0062 1.9662 0.0332-15.707 0 0z"/>
					<path d="m1335.3 476.24c13.752 7.3423 28.456 12.656 43.938 14.802 8.4502 1.1714 17.024 1.402 25.509 0.4537 4.2258-0.4723 8.4203-1.2311 12.539-2.2884 5.7379-1.4727 12.802-1.4277 11.142-8.2151-7.8857-32.243-28.085-62.248-56.487-79.756-31.07-19.153-69.417-19.702-100.53-0.3363-5.4121 3.3689-2.5397 4.8247 0.0481 9.7288 1.92 3.6386 3.8699 7.2853 6.0161 10.797 5.0054 8.189 10.884 16.148 17.454 23.151 11.576 12.649 25.214 23.595 40.368 31.664 1.9722 1.053-3.951-2.1037 0 0z"/>
					<path d="m1423.3 365.91c-7.8164 37.752-2.3455 77.48 10.034 113.61 2.027 5.9163 3.6145 3.8157 8.9935 2.3635 5.0182-1.3548 9.9105-3.1745 14.585-5.448 8.4631-4.1158 16.209-9.7213 22.774-16.464 12.761-13.107 20.98-30.292 25.028-48.003 8.752-38.29 0.5173-79.999-18.223-114.15-2.1078-3.8413-4.3508-7.6069-6.6714-11.323-4.8387 1.8846-9.4688 4.2928-13.804 7.1506-7.7543 5.112-14.519 11.635-20.167 18.993-11.854 15.443-18.966 34.261-22.55 53.272-2.0315 9.812 1.8317-9.7141 0 0z"/>
					<path d="m1346.8 634c14.783 13.058 30.825 24.285 49.105 31.924 9.5834 4.0048 19.623 6.9591 29.886 8.5923 5.9261 0.9431 11.924 1.4432 17.926 1.4514 6.4858 0.0089 13.394 2.0847 13.618-5.4623 1.3363-45.065-15.431-92.043-50.465-121.59-33.547-28.289-78.268-34.396-118.97-18.633 8.6918 39.81 28.437 76.284 58.9 103.71 4.1525 3.6681-4.0816-3.6752 0 0z"/>
					<path d="m1487.4 528.41c-11.045 24.23-17.559 50.177-21.312 76.46-1.7659 12.367-2.676 24.904-2.92 37.394-0.1221 6.2525 0.0762 12.508 0.2408 18.758 0.0814 3.1266 0.2255 6.2502 0.4321 9.3711 0.4518 6.788 2.6675 5.0578 8.6927 5.2049 49.968 1.2197 87.906-34.274 105.98-78.308 17.583-43.466 17.022-93.217 4.2577-137.87-1.5598-5.4565-1.5145-13.575-8.0613-12.324-5.0973 0.9741-10.105 2.4045-14.955 4.2476-11.189 4.2515-21.468 10.679-30.526 18.473-18.357 15.795-31.94 36.647-41.832 58.593-2.6012 5.7067 2.5694-5.6996 0 0z"/>
					<path d="m1302.9 815.08c24.527 43.113 61.885 82.792 111.49 95.239 19.701-44.82 24.864-97.766 5.6211-143.78-21.465-50.204-66.372-82.078-120.98-85.663-6.0654-0.3982-12.152-0.4629-18.225-0.2237-3.0334 0.1201-6.0621 0.314-9.0861 0.5817-0.168 4.0991-0.7504 8.165-0.8933 12.269-0.4749 13.64 0.6798 27.386 2.8593 40.843 4.5634 28.18 15.122 55.978 29.207 80.738 1.6405 2.8837-3.2811-5.7675 0 0z"/>
					<path d="m1511.3 748.41c-37.786 42.502-63.97 93.829-82.952 147.08-2.2192 6.2256-8.688 16.572-1.8573 19.791 7.765 3.6591 15.879 6.5839 24.217 8.6324 15.701 3.8575 32.071 4.484 48.032 1.9307 32.295-5.1664 60.738-23.07 83.35-46.137 43.752-44.63 65.241-108.36 67.868-169.95 0.2368-6.356 0.308-12.712 0.2754-19.072-0.0193-3.761-0.0616-7.5299-0.392-11.279-4.5295-0.6254-9.0992-0.9529-13.672-0.9866-16.033-0.1182-31.879 3.4252-46.649 9.5606-30.509 12.674-57.006 35.431-78.221 60.424-5.3011 5.9628 10.166-11.976 0 0z"/>
					<path d="m1171.2 999.6c7.6097 58.447 30.649 119.1 76.99 157.69 2.1287 1.7733 4.3007 3.4917 6.5164 5.155 3.047-2.8073 6.0194-5.6954 8.9143-8.6594 5.7937-5.9321 11.277-12.167 16.425-18.668 10.243-12.935 19.168-26.925 26.509-41.704 15.175-30.553 23.519-64.666 22.442-98.855-2.103-66.806-42.047-122.38-102.29-149.85-6.2788-2.8629-12.691-5.4304-19.198-7.7283-3.9113-1.3813-7.8567-2.6653-11.83-3.8582-1.962 3.86-3.8157 7.7751-5.5591 11.739-7.1479 16.25-12.404 33.294-15.955 50.68-6.9785 34.171-7.5008 69.528-2.9624 104.05 0.5275 4.0504-4.2672-32.464 0 0z"/>
					<path d="m1443.4 1020.5c-67.284 34.434-126.29 85.005-174.93 142.55-3.6456 4.3138-7.3553 5.2482-3.0719 10.08 2.7485 3.1008 5.6095 6.1021 8.5804 8.9905 5.9547 5.7891 12.353 11.123 19.148 15.9 15.105 10.622 32.097 18.33 50.036 22.71 34.969 8.538 71.544 4.2157 105.13-7.8633 66.077-23.814 119.62-75.896 154.89-135.62 8.7362-14.791 16.449-30.188 23.077-46.037 3.3348-7.9749 6.394-16.065 9.1652-24.253 2.0536-6.0683-0.8561-5.4859-5.9982-7.9687-4.976-2.4026-10.112-4.472-15.357-6.2086-34.34-11.369-71.104-7.8516-105.43 1.562-22.557 6.2044-44.496 15.389-65.241 26.156-35.49 18.163 8.8066-4.5707 0 0z"/>
					<path d="m943.49 1130.9c-4.7292 17.128-8.4946 34.569-11.463 52.085-1.0544 6.2209-15.782 128.08-9.3519 143.45 3.3086 7.9073 7.203 15.562 11.505 22.973 2.6445 4.5554 2.5503 7.8929 8.1718 6.5898 3.9102-0.9065 7.8197-1.8253 11.703-2.8422 29.156-7.6349 58.022-20.038 82.27-38.192 56.132-42.025 96.069-106.03 94.653-177.92-0.7013-35.599-11.149-70.058-29.582-100.47-8.7615-14.455-19.126-27.904-30.577-40.325-5.7208-6.2051-11.714-12.158-17.925-17.872-3.1042-2.856-6.2631-5.6525-9.4706-8.3918-5.1582-4.4053-7.3796 0.9275-11.757 4.8314-46.446 40.165-71.845 98.275-88.176 156.08-1.9847 7.1883 0.6319-2.2371 0 0z"/>
					<path d="m1233 1303.8c-54.702 3.546-108.72 13.927-161.78 27.416-42.497 10.805-85.456 22.613-126.56 38.012 12.947 36.608 36.608 68.488 59.747 99.216 6.3705 8.4597 12.791 16.882 19.121 25.372 4.0844 5.479 9.3162 7.8005 16.002 11.17 62.364 31.432 136.85 29.832 203.08 13.065 68.461-17.332 133.69-54.222 185.3-102.27 12.288-11.44 24.123-23.232 35.237-35.821 4.9875-5.6495-5.9498-13.783-10.656-18.49-6.7324-6.7335-14.088-12.834-21.899-18.276-29.907-20.84-65.95-31.89-101.78-36.839-31.661-4.3729-63.957-4.9263-95.814-2.5558-45.31 2.9371 12.475-0.9282 0 0z"/>
			<path d="m1055.6 57.504c8.8516 4.3931 19.461 5.9479 29.087 3.3358-6.6525-19.072-30.941-30.482-49.947-23.914 3.9446 9.2421 11.867 16.366 20.86 20.578 4.9095 2.4367-9.9149-4.6439 0 0z"/>
			<path d="m1084.6 60.84c237.89 124 397.13 389.05 378.45 659.47-9.8567 142.7-63.446 277.14-150.19 390.62-80.969 105.92-193.73 199.79-321 243.7-12.806 4.4185-25.603 8.6434-38.599 12.473-29.601 8.8256-53.268 24.75-74.895 46.859-46.018 47.044-86.072 112.49-100.29 177.25-3.1187-0.7579-6.2374-1.5159-9.3561-2.2737-5.6221-1.3663-7.6332 0.1295-6.0425-6.207 4.8535-19.334 12.264-37.96 20.726-55.977 14.16-30.151 31.377-59.637 51.873-85.966 22.055-29.157 48.433-58.157 81.196-75.384 17.17-9.0281 36.38-12.483 54.642-18.59 120.07-40.148 225.23-116.16 307.96-211.41 94.901-109.26 164.29-250.67 175.61-396.31 8.7668-112.84-8.0326-226.09-52.172-330.7-62.425-147.94-176.19-272.13-317.91-347.56 60.934 31.762 60.658 32.285 0 0z"/>
<path d="m944.04 1522.4" fill="none" stroke="#000" stroke-miterlimit="10" stroke-width=".6058"/>
</svg>
